<?xml version="1.0" encoding="iso-8859-1"?>
<!-- Generator: Adobe Illustrator 19.0.0, SVG Export Plug-In . SVG Version: 6.00 Build 0)  -->
<svg version="1.1" id="Layer_1" xmlns="http://www.w3.org/2000/svg" xmlns:xlink="http://www.w3.org/1999/xlink" x="0px" y="0px"
	 viewBox="0 0 512 512" style="enable-background:new 0 0 512 512;" xml:space="preserve">
<path style="fill:#211915;" d="M512,512H0V256c0-68.38,26.628-132.668,74.981-181.019S187.62,0,256,0s132.668,26.628,181.019,74.981
	S512,187.62,512,256V512z"/>
<path style="fill:#FFFFFF;" d="M73.143,512V221.117c0-58.906,47.924-106.83,106.83-106.83c28.917,0,56.142,11.606,76.027,31.782
	c19.884-20.176,47.11-31.782,76.027-31.782c58.906,0,106.83,47.924,106.83,106.83V512H73.143z"/>
<path style="fill:#FFAB00;" d="M256,431.699l-74.713-118.642L256,245.866l74.713,67.19L256,431.699z"/>
<path style="fill:#BDBDBF;" d="M438.857,221.117c0-58.906-47.924-106.83-106.83-106.83c-28.573,0-55.489,11.337-75.309,31.071
	V246.51l73.996,66.545l-73.996,117.503V512h182.139V221.117z"/>
<polygon style="fill:#BD7F00;" points="330.713,313.056 256.718,246.511 256.718,430.559 "/>
<g>
	<path style="fill:#333333;" d="M187.76,214.201c0-11.513-9.229-20.835-20.569-20.835c-11.355,0-20.582,9.324-20.582,20.835
		c0,11.511,9.227,20.843,20.582,20.843C178.53,235.044,187.76,225.712,187.76,214.201z"/>
	<path style="fill:#333333;" d="M365.392,214.201c0-11.513-9.229-20.835-20.569-20.835c-11.355,0-20.582,9.324-20.582,20.835
		c0,11.511,9.227,20.843,20.582,20.843C356.163,235.044,365.392,225.712,365.392,214.201z"/>
</g>
<g>
</g>
<g>
</g>
<g>
</g>
<g>
</g>
<g>
</g>
<g>
</g>
<g>
</g>
<g>
</g>
<g>
</g>
<g>
</g>
<g>
</g>
<g>
</g>
<g>
</g>
<g>
</g>
<g>
</g>
</svg>
